<?xml version="1.0" encoding="UTF-8"?>
<svg xmlns="http://www.w3.org/2000/svg" viewBox="0 0 2000 2000" id="delivery-service">
  <g>
    <path fill="#e2eefc" d="M204.05,1651.47s-301.33-352.15,127.14-465.29,541.37-210,743.93-503.17,1074.1-214.76,719.59,982Z"/>
    <path fill="#e2eefc" d="M322.91,962.41C603.79,969.19,883,814.76,1026.5,573.23c27.71-46.64,16.68-112.59-24.7-147.67s-108.25-35.17-149.72-.19c-68.65,57.89-159.68,80.71-248,96.79S424.59,549.92,344.72,591,196.91,710.66,198.16,800.45,292.21,961.67,322.91,962.41Z"/>
    <rect width="328" height="393.49" x="1438.05" y="1245.6" fill="#ccdeff"/>
    <rect width="81" height="15" x="1458.63" y="1266.19" fill="#e2eefc"/>
    <rect width="81" height="15" x="1556.63" y="1266.19" fill="#e2eefc"/>
    <rect width="81" height="15" x="1652.63" y="1266.19" fill="#e2eefc"/>
    <rect width="81" height="15" x="1459.63" y="1293.19" fill="#e2eefc"/>
    <rect width="81" height="15" x="1557.63" y="1293.19" fill="#e2eefc"/>
    <rect width="81" height="15" x="1653.63" y="1293.19" fill="#e2eefc"/>
    <rect width="81" height="15" x="1459.63" y="1320.19" fill="#e2eefc"/>
    <rect width="81" height="15" x="1557.63" y="1320.19" fill="#e2eefc"/>
    <rect width="81" height="15" x="1653.63" y="1320.19" fill="#e2eefc"/>
    <rect width="81" height="15" x="1460.63" y="1347.19" fill="#e2eefc"/>
    <rect width="81" height="15" x="1558.63" y="1347.19" fill="#e2eefc"/>
    <rect width="81" height="15" x="1654.63" y="1347.19" fill="#e2eefc"/>
    <rect width="81" height="15" x="1461.63" y="1374.19" fill="#e2eefc"/>
    <rect width="81" height="15" x="1559.63" y="1374.19" fill="#e2eefc"/>
    <rect width="81" height="15" x="1655.63" y="1374.19" fill="#e2eefc"/>
    <rect width="81" height="15" x="1461.63" y="1401.19" fill="#e2eefc"/>
    <rect width="81" height="15" x="1559.63" y="1401.19" fill="#e2eefc"/>
    <rect width="81" height="15" x="1655.63" y="1401.19" fill="#e2eefc"/>
    <rect width="275" height="100" x="1461.63" y="1442.34" fill="#e2eefc"/>
    <rect width="102" height="482.15" x="1671.41" y="1156.94" fill="#ccdeff"/>
    <rect width="30" height="438" x="1763.76" y="1201.09" fill="#ccdeff"/>
    <rect width="158" height="254" x="288.97" y="1386.1" fill="#ccdeff"/>
    <rect width="117.5" height="23" x="305.53" y="1411.18" fill="#e2eefc"/>
    <rect width="117.5" height="23" x="305.53" y="1449.6" fill="#e2eefc"/>
    <rect width="117.5" height="23" x="305.59" y="1488.01" fill="#e2eefc"/>
    <rect width="117.5" height="23" x="305.59" y="1525.64" fill="#e2eefc"/>
    <rect width="158" height="335" x="404.07" y="1305.1" fill="#ccdeff"/>
    <rect width="353.11" height="269" x="547.07" y="1371.1" fill="#ccdeff"/>
    <rect width="88" height="149" x="200.97" y="1491.1" fill="#ccdeff"/>
    <rect width="3" height="126.14" x="605.7" y="1244.96" fill="#ccdeff"/>
    <rect width="3" height="97.1" x="639.38" y="1274" fill="#ccdeff"/>
    <rect width="7" height="146.27" x="575.11" y="1224.83" fill="#ccdeff"/>
    <rect width="29" height="36.41" x="307.52" y="1349.69" fill="#ccdeff"/>
    <rect width="63" height="39.34" x="416.07" y="1265.75" fill="#ccdeff"/>
    <rect width="27" height="80.27" x="507.18" y="1224.83" fill="#ccdeff"/>
    <rect width="24" height="88.14" x="352.34" y="1297.96" fill="#ccdeff"/>
    <rect width="23.5" height="23.5" x="211.97" y="1505.6" fill="#e2eefc"/>
    <rect width="23.5" height="23.5" x="250.47" y="1505.6" fill="#e2eefc"/>
    <rect width="23.5" height="23.5" x="211.97" y="1545.1" fill="#e2eefc"/>
    <rect width="23.5" height="23.5" x="250.47" y="1545.1" fill="#e2eefc"/>
    <rect width="23.5" height="23.5" x="211.97" y="1584.6" fill="#e2eefc"/>
    <rect width="23.5" height="23.5" x="250.47" y="1584.6" fill="#e2eefc"/>
    <rect width="9" height="303" x="423.09" y="1326.39" fill="#e2eefc"/>
    <rect width="9" height="303" x="463.09" y="1326.39" fill="#e2eefc"/>
    <rect width="9" height="303" x="499.1" y="1326.39" fill="#e2eefc"/>
    <rect width="9" height="303" x="537.11" y="1326.39" fill="#e2eefc"/>
    <rect width="158" height="254" x="693.63" y="1373.81" fill="#ccdeff"/>
    <rect width="117.5" height="23" x="710.2" y="1398.9" fill="#e2eefc"/>
    <rect width="117.5" height="23" x="710.2" y="1437.31" fill="#e2eefc"/>
    <rect width="117.5" height="23" x="710.26" y="1475.73" fill="#e2eefc"/>
    <rect width="117.5" height="23" x="710.26" y="1513.36" fill="#e2eefc"/>
    <rect width="158" height="335" x="808.74" y="1292.81" fill="#ccdeff"/>
    <rect width="353.11" height="269" x="951.74" y="1358.81" fill="#ccdeff"/>
    <rect width="88" height="149" x="605.63" y="1478.81" fill="#ccdeff"/>
    <rect width="3" height="126.14" x="1010.37" y="1232.68" fill="#ccdeff"/>
    <rect width="3" height="97.1" x="1044.05" y="1261.71" fill="#ccdeff"/>
    <rect width="7" height="146.27" x="979.78" y="1212.54" fill="#ccdeff"/>
    <rect width="29" height="36.41" x="712.19" y="1337.41" fill="#ccdeff"/>
    <rect width="63" height="39.34" x="820.74" y="1253.47" fill="#ccdeff"/>
    <rect width="27" height="80.27" x="911.84" y="1212.54" fill="#ccdeff"/>
    <rect width="24" height="88.14" x="757.01" y="1285.68" fill="#ccdeff"/>
    <rect width="23.5" height="23.5" x="616.64" y="1493.31" fill="#e2eefc"/>
    <rect width="23.5" height="23.5" x="655.14" y="1493.31" fill="#e2eefc"/>
    <rect width="23.5" height="23.5" x="616.64" y="1532.81" fill="#e2eefc"/>
    <rect width="23.5" height="23.5" x="655.14" y="1532.81" fill="#e2eefc"/>
    <rect width="23.5" height="23.5" x="616.64" y="1572.31" fill="#e2eefc"/>
    <rect width="23.5" height="23.5" x="655.14" y="1572.31" fill="#e2eefc"/>
    <rect width="9" height="303" x="827.76" y="1314.1" fill="#e2eefc"/>
    <rect width="9" height="303" x="867.76" y="1314.1" fill="#e2eefc"/>
    <rect width="9" height="303" x="903.77" y="1314.1" fill="#e2eefc"/>
    <rect width="9" height="303" x="941.78" y="1314.1" fill="#e2eefc"/>
    <rect width="158" height="254" x="1098.1" y="1351.65" fill="#ccdeff"/>
    <rect width="117.5" height="23" x="1114.67" y="1376.74" fill="#e2eefc"/>
    <rect width="117.5" height="23" x="1114.67" y="1415.15" fill="#e2eefc"/>
    <rect width="117.5" height="23" x="1114.73" y="1453.56" fill="#e2eefc"/>
    <rect width="117.5" height="23" x="1114.73" y="1491.2" fill="#e2eefc"/>
    <rect width="158" height="335" x="1213.2" y="1270.65" fill="#ccdeff"/>
    <rect width="353.11" height="269" x="1356.2" y="1336.65" fill="#ccdeff"/>
    <rect width="88" height="149" x="1010.1" y="1456.65" fill="#ccdeff"/>
    <rect width="3" height="126.14" x="1414.84" y="1210.51" fill="#ccdeff"/>
    <rect width="3" height="97.1" x="1448.52" y="1239.55" fill="#ccdeff"/>
    <rect width="7" height="146.27" x="1384.25" y="1190.38" fill="#ccdeff"/>
    <rect width="29" height="36.41" x="1116.66" y="1315.24" fill="#ccdeff"/>
    <rect width="63" height="39.34" x="1225.21" y="1231.31" fill="#ccdeff"/>
    <rect width="27" height="80.27" x="1316.31" y="1190.38" fill="#ccdeff"/>
    <rect width="24" height="88.14" x="1161.48" y="1263.52" fill="#ccdeff"/>
    <rect width="23.5" height="23.5" x="1021.1" y="1471.15" fill="#e2eefc"/>
    <rect width="23.5" height="23.5" x="1059.6" y="1471.15" fill="#e2eefc"/>
    <rect width="23.5" height="23.5" x="1021.1" y="1510.65" fill="#e2eefc"/>
    <rect width="23.5" height="23.5" x="1059.6" y="1510.65" fill="#e2eefc"/>
    <rect width="23.5" height="23.5" x="1021.1" y="1550.15" fill="#e2eefc"/>
    <rect width="23.5" height="23.5" x="1059.6" y="1550.15" fill="#e2eefc"/>
    <rect width="9" height="303" x="1232.23" y="1291.94" fill="#e2eefc"/>
    <rect width="9" height="303" x="1272.23" y="1291.94" fill="#e2eefc"/>
    <rect width="9" height="303" x="1308.24" y="1291.94" fill="#e2eefc"/>
    <rect width="9" height="303" x="1346.24" y="1291.94" fill="#e2eefc"/>
    <rect width="162" height="123.31" x="1276.05" y="1516.64" fill="#ccdeff"/>
    <rect width="6" height="6" x="1584.1" y="1608.83" fill="#ccdeff"/>
    <path fill="#e2eefc" d="m1354.2 457.06-24.84-8c10-29.64 53.92-40.47 76.5-18.84-11.85-14.18-2-39.93 16.29-42.59s35 19.25 27.71 36.21c14.15-16.31 44.75-12.51 54.47 6.77 11.67-14.46 37.21-14 48.37.84A281.92 281.92 0 0 1 1709 446.73l-443.26 21.51C1297.63 462.41 1329.56 456.58 1354.2 457.06ZM484.21 267l24.29-9.52c-11.8-29-56.36-37-77.53-14 10.93-14.9-.52-40-18.94-41.47s-33.76 21.42-25.38 37.88c-15.15-15.39-45.45-9.66-53.94 10.19-12.56-13.7-38-11.65-48.22 3.88a281.8 281.8 0 0 0-155 25.08l443.74-6.45C541 268.74 508.77 264.92 484.21 267Z"/>
    <path fill="#1a1a35" d="M110.88 1665h0a30 30 0 0 1 30-30h1728a30 30 0 0 1 30 30h0a30 30 0 0 1-30 30h-1728A30 30 0 0 1 110.88 1665ZM630.23 1248.86v-96.29a11 11 0 0 1 11-11h11v107.29Z"/>
    <path fill="#fbb089" d="M548.68,1157.67c3.31-.19,3.12,1,5.55,3.25a10.32,10.32,0,0,1,2.19,3.32,35.59,35.59,0,0,1,3.15,18.72,68.33,68.33,0,0,1,21.18-12.9c-3.48-4.82-5.35-10.6-6.91-16.34a29.68,29.68,0,0,0-2-5.74,5.93,5.93,0,0,0-1.71-2.19,6.18,6.18,0,0,0-4.56-.68c-4.21.65-8,2.78-11.64,5q-4.14,2.58-8.09,5.44c-.92.67,2.89,1.48,2.81,2.62"/>
    <path fill="#e44531" d="M560,1234.22s-44.39,25.82-55.43,18.1c0,0-33.29-6.46-51.88-90.67-.55-2.46-1.08-5-1.6-7.6l12.8-5.28s2.24,2.69,5.8,7.26c9.7,12.45,29.2,38.86,40,63,0,0,33.88-31.92,55.07-39.42Z"/>
    <path fill="#f75c3d" d="M558.3,1185.46a2.5,2.5,0,0,0-1.59,4c-2.56.6-3.59,3.63-4.14,6.2-8.13,38-7.11,77.23-9.08,116a94.37,94.37,0,0,1-2,17,122.78,122.78,0,0,0,25.34-1.12c6.52-1,13-2.48,19.63-2.1,6,.34,11.77,2.23,17.67,3.31a66.53,66.53,0,0,0,27.35-.74c2.11-7,1.78-14.57,1-21.89-2.15-20.87-7.61-41.23-13-61.5-2.31-8.62-4.65-17.3-8.44-25.39a153,153,0,0,0-7.94-14.2l-18.56-30.57a4.45,4.45,0,0,0-2.13-2.15c-1.41-.46-2.82.57-4,1.5a83.39,83.39,0,0,1-22.34,12.88"/>
    <!-- truncated for brevity -->
  </g>
</svg>
