<svg xmlns="http://www.w3.org/2000/svg" viewBox="0 0 400 320" role="img" aria-labelledby="title desc">
  <title id="title">Industries and teams illustration</title>
  <desc id="desc">Stylised people collaborating around industrial icons.</desc>
  <defs>
    <linearGradient id="peopleBg" x1="0%" y1="0%" x2="100%" y2="100%">
      <stop offset="0%" stop-color="#e8fff6" />
      <stop offset="100%" stop-color="#f3ecff" />
    </linearGradient>
  </defs>
  <rect width="400" height="320" rx="28" fill="url(#peopleBg)" />
  <g opacity="0.16">
    <circle cx="320" cy="72" r="32" fill="#1a3a5f" />
    <circle cx="92" cy="80" r="28" fill="#f26522" />
    <circle cx="280" cy="240" r="24" fill="#4db6ac" />
  </g>
  <g transform="translate(70 86)">
    <circle cx="130" cy="130" r="86" fill="#fff" opacity="0.92" />
    <path d="M130 54a38 38 0 1 1-38 38 38 38 0 0 1 38-38z" fill="#1a3a5f" opacity="0.85" />
    <path d="M130 70a22 22 0 1 1-22 22 22 22 0 0 1 22-22z" fill="#fff" opacity="0.95" />
    <path d="M66 162c8-26 32-44 64-44s56 18 64 44c3 10-4 20-14 20H80c-10 0-17-10-14-20z" fill="#f26522" opacity="0.9" />
    <g transform="translate(-18 14)">
      <circle cx="44" cy="94" r="34" fill="#fff" opacity="0.92" />
      <path d="M44 82a14 14 0 1 1-14 14 14 14 0 0 1 14-14z" fill="#1a3a5f" />
      <path d="M12 152c4-18 18-32 32-32s28 14 32 32c1 6-4 12-10 12H22c-6 0-11-6-10-12z" fill="#4db6ac" opacity="0.9" />
    </g>
    <g transform="translate(182 12)">
      <circle cx="48" cy="96" r="34" fill="#1a3a5f" opacity="0.9" />
      <path d="M48 84a14 14 0 1 1-14 14 14 14 0 0 1 14-14z" fill="#fff" />
      <path d="M16 154c4-20 18-34 32-34s28 14 32 34c1 6-4 12-10 12H26c-6 0-11-6-10-12z" fill="#f26522" opacity="0.85" />
    </g>
    <g transform="translate(120 -42)">
      <rect x="-12" y="0" width="24" height="48" rx="12" fill="#f26522" />
      <rect x="24" y="6" width="24" height="54" rx="12" fill="#1a3a5f" />
      <rect x="60" y="-4" width="24" height="64" rx="12" fill="#4db6ac" />
    </g>
  </g>
  <path d="M92 266h216" stroke="#1a3a5f" stroke-width="5" stroke-linecap="round" opacity="0.2" />
</svg>
