<svg xmlns="http://www.w3.org/2000/svg" viewBox="0 0 400 320" role="img" aria-labelledby="title desc">
  <title id="title">Transit time illustration</title>
  <desc id="desc">Stylised calendar and clock to visualise shipping timelines.</desc>
  <defs>
    <linearGradient id="eventBg" x1="0%" y1="0%" x2="100%" y2="100%">
      <stop offset="0%" stop-color="#fef3e8" />
      <stop offset="100%" stop-color="#e5f6ff" />
    </linearGradient>
    <radialGradient id="clockGlow" cx="50%" cy="50%" r="60%">
      <stop offset="0%" stop-color="#ffffff" />
      <stop offset="100%" stop-color="#d4e9ff" />
    </radialGradient>
  </defs>
  <rect width="400" height="320" rx="28" fill="url(#eventBg)" />
  <g opacity="0.15" fill="#1a3a5f">
    <circle cx="72" cy="84" r="24" />
    <circle cx="320" cy="66" r="30" />
    <circle cx="342" cy="228" r="22" />
  </g>
  <g transform="translate(52 70)">
    <rect x="0" y="26" width="296" height="176" rx="22" fill="#fff" opacity="0.92" />
    <rect x="0" y="0" width="296" height="70" rx="22" fill="#1a3a5f" />
    <g transform="translate(26 18)" fill="#fff">
      <rect width="24" height="12" rx="6" />
      <rect x="42" width="24" height="12" rx="6" />
      <rect x="84" width="24" height="12" rx="6" />
    </g>
    <g transform="translate(30 92)" fill="#f26522">
      <rect width="36" height="26" rx="8" />
      <rect x="60" width="36" height="26" rx="8" opacity="0.7" />
      <rect x="120" width="36" height="26" rx="8" opacity="0.5" />
    </g>
    <g transform="translate(30 134)" fill="#1a3a5f">
      <rect width="36" height="26" rx="8" opacity="0.4" />
      <rect x="60" width="36" height="26" rx="8" />
      <rect x="120" width="36" height="26" rx="8" opacity="0.7" />
    </g>
    <g transform="translate(210 92)">
      <circle cx="46" cy="58" r="58" fill="url(#clockGlow)" />
      <circle cx="46" cy="58" r="46" fill="#fff" stroke="#1a3a5f" stroke-width="6" />
      <path d="M46 24v38l32 12" fill="none" stroke="#f26522" stroke-width="8" stroke-linecap="round" stroke-linejoin="round" />
      <circle cx="46" cy="58" r="8" fill="#1a3a5f" />
    </g>
  </g>
  <path d="M84 266h232" stroke="#1a3a5f" stroke-width="5" stroke-linecap="round" opacity="0.25" />
  <path d="M108 52h44" stroke="#f26522" stroke-width="4" stroke-linecap="round" opacity="0.6" />
</svg>
